<svg width="50" height="50" viewBox="0 0 50 50" fill="none" xmlns="http://www.w3.org/2000/svg">
<circle cx="25" cy="25" r="25" fill="#5851D3"/>
<path fill-rule="evenodd" clip-rule="evenodd" d="M34 25.3131C34 25.628 33.8749 25.93 33.6522 26.1527C33.4296 26.3753 33.1275 26.5004 32.8126 26.5004H19.0558L24.1544 31.5966C24.2647 31.707 24.3523 31.8381 24.4121 31.9823C24.4718 32.1266 24.5026 32.2812 24.5026 32.4373C24.5026 32.5934 24.4718 32.748 24.4121 32.8922C24.3523 33.0365 24.2647 33.1675 24.1544 33.2779C24.044 33.3883 23.9129 33.4759 23.7687 33.5356C23.6244 33.5954 23.4698 33.6261 23.3137 33.6261C23.1576 33.6261 23.003 33.5954 22.8587 33.5356C22.7145 33.4759 22.5834 33.3883 22.473 33.2779L15.3488 26.1537C15.2383 26.0434 15.1505 25.9124 15.0907 25.7681C15.0308 25.6239 15 25.4693 15 25.3131C15 25.1569 15.0308 25.0022 15.0907 24.858C15.1505 24.7137 15.2383 24.5827 15.3488 24.4724L22.473 17.3482C22.5834 17.2378 22.7145 17.1502 22.8587 17.0905C23.003 17.0308 23.1576 17 23.3137 17C23.4698 17 23.6244 17.0308 23.7687 17.0905C23.9129 17.1502 24.044 17.2378 24.1544 17.3482C24.3773 17.5712 24.5026 17.8736 24.5026 18.1889C24.5026 18.345 24.4718 18.4996 24.4121 18.6438C24.3523 18.7881 24.2647 18.9191 24.1544 19.0295L19.0558 24.1257H32.8126C33.1275 24.1257 33.4296 24.2508 33.6522 24.4735C33.8749 24.6962 34 24.9982 34 25.3131Z" fill="white"/>
</svg>
