<svg width="50" height="50" viewBox="0 0 50 50" fill="none" xmlns="http://www.w3.org/2000/svg">
<circle r="25" transform="matrix(-1 0 0 1 25 25)" fill="#5851D3"/>
<path fill-rule="evenodd" clip-rule="evenodd" d="M16 25.3131C16 25.628 16.1251 25.93 16.3478 26.1527C16.5704 26.3753 16.8725 26.5004 17.1874 26.5004H30.9442L25.8456 31.5966C25.7353 31.707 25.6477 31.8381 25.5879 31.9823C25.5282 32.1266 25.4974 32.2812 25.4974 32.4373C25.4974 32.5934 25.5282 32.748 25.5879 32.8922C25.6477 33.0365 25.7353 33.1675 25.8456 33.2779C25.956 33.3883 26.0871 33.4759 26.2313 33.5356C26.3756 33.5954 26.5302 33.6261 26.6863 33.6261C26.8424 33.6261 26.997 33.5954 27.1413 33.5356C27.2855 33.4759 27.4166 33.3883 27.527 33.2779L34.6512 26.1537C34.7617 26.0434 34.8495 25.9124 34.9093 25.7681C34.9692 25.6239 35 25.4693 35 25.3131C35 25.1569 34.9692 25.0022 34.9093 24.858C34.8495 24.7137 34.7617 24.5827 34.6512 24.4724L27.527 17.3482C27.4166 17.2378 27.2855 17.1502 27.1413 17.0905C26.997 17.0308 26.8424 17 26.6863 17C26.5302 17 26.3756 17.0308 26.2313 17.0905C26.0871 17.1502 25.956 17.2378 25.8456 17.3482C25.6227 17.5712 25.4974 17.8736 25.4974 18.1889C25.4974 18.345 25.5282 18.4996 25.5879 18.6438C25.6477 18.7881 25.7353 18.9191 25.8456 19.0295L30.9442 24.1257H17.1874C16.8725 24.1257 16.5704 24.2508 16.3478 24.4735C16.1251 24.6962 16 24.9982 16 25.3131Z" fill="white"/>
</svg>
